<?xml version="1.0" encoding="UTF-8"?>
<svg id="Layer_2" data-name="Layer 2" xmlns="http://www.w3.org/2000/svg" viewBox="0 0 2381.34 1507.56">
  <g id="Layer_1-2" data-name="Layer 1">
    <g>
      <path d="M1388.65,403.83c-4.78,0-10.85-2.41-16.93.03-.07,2.93-.41,5.93.54,8.81,1.66,5.05,31.13,40.98,37.71,52.48,12.14,21.21,22.89,59.71,33.65,75.29,9.66,13.98,47.2,26.07,63.55,23.38,101.44-42.6,213.1-124.47,325.23-133.65,34.95-2.86,79.56,4.88,112.52-.29,33.23-5.21,86.57-63.12,118.99-83.95,48.58-31.22,150.91-63.52,184.07-97.81,27.56-28.5,10.82-62.91,19.31-89.62,1.57-4.95,5.43-7.28,10.58-6.27,49,117.97-52.78,141.28-130.33,187.11-42.19,24.93-87.6,57.29-117.71,96.5-37.36,48.66,7.61,47.65,35.67,80.61,17.62,20.7,40.32,91.21,42.72,118.78,1.12,12.85-6,47.83.39,52.4,4.58,3.27,76.92-14.45,86.62-19,38-17.82,73.97-108.03,92.99.91,4.71,27,1.29,59.1,6.55,83.58,9.48,44.02,88.8,136.99,86.49,165.63-.36,4.41-7.16,24.78-11.49,25.72-17.29-4.2-29.77-17.18-40.77-30.24l-24.74-52.22c.49,21.83,17.06,40.43,18.54,62.5,2.41,35.76-11.88,62.47-41.14,25.73-37.21-46.74-22.7-116.86-30.55-172.28-1.46-10.29-4.87-33.42-14.6-38.13-6.3-3.58-11.8-1.57-17.79,1.07-17.13,7.55-45.53,36.88-63.72,49.04-25.21,16.86-64.58,41.96-95.19,28.85-23.64-10.12-30.11-39.5-42.96-47.2-8.54-5.12-18.62-3.17-27.81-6.03-27.11-8.42-64.15-68.28-78.99-93.85-7.2-12.4-13.84-25.56-19.44-38.75l58.23,11.28c3.99-.95,2.45-5.11.11-7.63-10.17-10.91-71.8-20.95-87.44-15.83-34.44,11.28-61.69,82.32-82.18,113.19-39.41,59.4-82.04,102.05-149.38,128.71-35.2,13.93-77.3,17.66-108.76,30.33-9.37,3.77-32.89,45.96-35.22,55.35-2.99,12.04,35.13,35.47,45.99,40.86,23.2,11.52,64.32,15.06,80.12,25.13,4.68,2.99,8.95,6.46,7.76,12.85-54.32,15.16-102.3-18.93-148.31-41.46-12.35,28.17-35.64,53.55-35.26,85.88,39.74,30.19,97.48,17.15,128.81,57.27,12.87,16.49,63.12,125.74,65.73,144.66,3.47,25.11-4.33,86.46-20.5,106.55-9.49,11.78-55.99,28.74-61.36,12.77-3.16-27.44,16.38-50.11,23.1-77.27,30.07-121.56-70.77-147.76-164.05-171.63-7.8,2.27-58.5,129.1-66.92,147.51-25.47,55.67-53.24,117.68-80.31,171.39-8.66,17.18-4.06,31.25-27.38,40.26-19.95,7.7-80.05,8.43-72.38-22.61,1.12-4.52,26.89-16.56,32.15-21.33,21.68-19.64,57.2-88.49,59.57-117.27.4-4.81,3.79-5.94-3.29-10.46-40.24,33.42-36.51,79.27-98.1,85.93-14.68,1.59-70.98,1.71-68.23-19.62,2.4-18.64,46.45-26.43,62.56-34.83,33.21-17.32,98.91-78.4,89.89-118.94-4.73-21.24-68.94-50.08-89.13-64.99-20.83-15.39-37.76-36.04-58.21-50.19-8.84,1.85-20.89,32.96-26.96,40.91-8.39,10.98-21.56,19.52-29.59,30.53-20.49,28.1-28.67,65.81-52.8,93.72-9.69,11.21-51.85,51.79-65.95,43.23-25.3-46.8,36.15-90.67,59.54-124.73,30.31-44.14,33.3-105.18,83.51-135.31-6.39-35.35-14.63-70.25-21.49-105.55-4.63-23.8-6.7-87.23-23.83-100.12-6.27-4.72-21.84-9.31-29.96-11.38-63.29-16.15-125.16,29.2-201.35,24.59-26.38-1.6-93.67-24.07-108.11-21.99-19.32,2.79-23.97,34.37-38.89,43.86-24.3,15.47-89.92,21.94-114.12,40-13.24,9.88-43.07,54.87-56.56,71.19-13.95,16.89-61.9,63.96-63.75,82.83-.55,5.58,6.05,33.72,8.57,40.06,19.74,49.67,114.58,42.61,123.26,54.28,12.15,16.34-6.94,32.07-24.67,33.05-41.85,2.3-91.68-29.76-125.72-52.72-28.95-19.52-45.13-28.87-48.8-67.69-3.97-41.94,50.86-81.29,59.74-121.62-101.33,8.72-112.18,157.19-217.49,145.9-12.14-7.7,11.65-45.33,18.23-53.9,15.29-19.95,40.32-33.45,58.38-50.6,33.23-31.56,54.07-72.72,97-90.89,42.42-17.95,103.55-16,113.86-70.55,5.02-26.6-33.08-46.43-47.37-65.87-20.55-27.96-9.83-68.64-18.61-100.63-34.86-19.11-55.26-52.13-99-43.08-8.16,1.69-82.01,36.05-93.19,42.12-25.78,14.01-48.91,42.42-76.19,55.35-17.68,8.38-36.56,6.16-50.55,13.44-5.42,2.82-12.4,16.42-17.83,15.83-7.13-.78-3.41-6.98-2.85-10.17,2.93-16.55,11.69-32.46,26.04-41.69,18.99-12.2,41.42-6.01,35.09-38.17l-76.46,6.93c-7.09-12.57-22.57-21.22-20.61-34.32,2.63-17.61,74.54-58.42,87.52-81.71,8.54-15.32,3.02-22.13,6.58-34.72,1.58-5.6,42.65-38.16,50.73-43.22,12.41-7.77,38.14-14.92,43.8-19.21,4.36-3.3,2.79-13.59,10-17.45,11.56-6.2,51.1,19.42,80.02,8.81,15.09-5.53,24.1-42.96,60.88-40.65,34.04,2.14,63.69,18.59,72.14,52.92,56.35,6.02,120.84-10.81,175.81-3.61,29.02,3.8,57.45,27.51,86.74,37.3,35.46,11.85,75.41,16.71,111.8,27.29,105.2,30.59,290.72,123.59,378.58,188.96,8.84,6.58,18.9,21.39,27.66,24.95,17.6,7.14,41.63-.74,60.61,6.31l5.53-5.94c-2.78-35.45,9.83-66.56,15.56-100.8l-34.68-158.66c-4.89-5.79-44.37-2.28-53.33-.64-32.65,5.95-104.94,49.17-133.76,35.35-32.09-15.39,29.54-33.63,34.13-37.2,8.41-6.51,11.03-21.82,22.24-27.35,7.33-36.5-51.68-24.91-72.99-27.76-26.62-3.56-44.29-23.03-40.18-49.61,39.54-23.37,93.97-19.22,131.73-46.05,17.56-12.48,22.98-28.46,48.9-33.78,27.09-5.56,52.72,4.13,73.23,2.1,9.19-.91,13.53-8.6,20.01-10.38,28.23-7.76,40.82,17.72,55.49,17.65,12.97-.06,31.56-17.87,50.72-9.1,14.34,6.56,24.53,46.89,33.86,60.08,6.94,9.8,21.81,12.47,22.6,24.37-20.64-.02-41.36.03-62.04,0ZM1383.01,969.01c1.85-16.79,0-38.73,0-56.33,0-19.41-41.01,15.8-40.64,25.54l25.66,58.94c7.76,7.29,14.59-24.63,14.98-28.15ZM1319.04,1196.21l24.69-82.6c-23.99-20.88-54.89-32.15-79.05-52.7-14.39-12.24-29.46-37.44-41.45-45.28-4.3-2.81-3.22-2.9-8.21-.69-4.01,1.78-46.88,35.82-48.18,38.62-24.94,53.89,112.56,127.85,152.2,142.65Z"/>
      <g>
        <path d="M73.52,331.41l32,168.33-49.54,9.42L0,214.73l46.73-8.88,9.31,48.98,1.13-.21c7.01-20.38,16.23-36.82,27.66-49.3,11.43-12.47,26.16-20.43,44.17-23.86,5.62-1.07,10.05-1.33,13.27-.78l9.74,51.23-19.15,3.64c-12.38,2.35-23.75,7.53-34.09,15.52-10.34,8-18.01,18.79-23.01,32.37-5,13.59-5.75,29.58-2.25,47.97Z"/>
        <path d="M240.78,57.3l.74-57.3,50.43.65-.74,57.3-50.43-.65ZM236.22,411.42l3.85-299.68,50.43.65-3.85,299.68-50.43-.65Z"/>
        <path d="M602.83,203.56l-48.23-6.84c2.31-16.26-1.8-29.49-12.31-39.66-10.52-10.17-26.95-16.84-49.26-20.01-18.16-2.57-33.34-.96-45.54,4.83-12.2,5.79-19.24,15.31-21.12,28.55-1.45,10.21.74,18.54,6.59,24.95,5.83,6.43,18.09,13.27,36.74,20.55l55.29,22.31c27.73,11.27,47.06,23.85,58.03,37.75,10.95,13.91,14.98,31.06,12.09,51.49-2.74,19.29-10.08,35.71-22.03,49.26-11.96,13.55-27.5,23.11-46.61,28.69-19.12,5.58-40.22,6.74-63.29,3.47-83.22-11.8-120.68-52.42-112.37-121.85l48.22,6.84c-1.92,21.72,3.16,38.27,15.25,49.62,12.08,11.36,30.23,18.76,54.44,22.19,20.8,2.95,38.04,1.15,51.7-5.4,13.66-6.55,21.51-17.01,23.55-31.39,1.34-9.45-.36-17.21-5.08-23.29-4.74-6.07-10.8-10.98-18.17-14.73-7.38-3.74-18.37-8.58-32.96-14.51l-49.78-20.37c-21.57-8.46-37.89-19.16-48.98-32.12-11.1-12.95-15.16-29.83-12.21-50.64,4.13-29.13,17.8-50.72,41.02-64.8,23.21-14.07,52.03-18.66,86.45-13.78,34.8,4.93,60.54,17.26,77.23,36.99,16.68,19.73,23.81,43.7,21.35,71.9Z"/>
        <path d="M903.5,231.4l59.74,23.45-147.51,62.14,44.41,219.35-60.27-23.66-31.68-174.95-52.76,19.92-41.46,105.62-45.35-17.8L778.97,62.47l45.35,17.8-87.1,221.91,166.29-70.78Z"/>
        <path d="M1620.02,188.2c5.72-19.12,12.42-33.25,20.13-42.41,7.69-9.15,17.71-16.4,30.06-21.74,21.04-9.09,40.76-9.87,59.16-2.34,18.4,7.53,32.4,22.37,41.98,44.53l66.57,154.02-37.03,16-61.11-141.39c-7.52-17.39-16.28-29-26.29-34.83-10.02-5.83-22.32-5.59-36.9.71-9.55,4.13-17.06,10.62-22.55,19.48-5.49,8.86-8.57,18.86-9.27,29.98-.69,11.12,1.33,22.15,6.06,33.09l57.47,132.98-37.03,16-65.84-152.34c-5.46-12.62-12.78-21.27-21.96-25.97-9.19-4.68-19.25-4.67-30.19.06-17.4,7.52-28.6,20.1-33.62,37.76-5.03,17.65-2.93,37.14,6.29,58.46l52.74,122.04-37.03,16-95.12-220.09,34.92-15.09,13.46,31.14.85-.37c6.04-32.24,22.8-54.31,50.3-66.19,12.62-5.45,25.29-7.51,38.03-6.19,12.72,1.33,24.7,6.89,35.93,16.68Z"/>
        <path d="M1981.89,254.91l91.64-184.02,44,6.4c-14.51,27.54-32.59,61.66-54.27,102.36-21.67,40.71-41.23,76.46-58.69,107.28l-27.88,48.3c-10.72,18.51-19.96,31.61-27.71,39.28-7.76,7.67-14.97,12.11-21.62,13.3-6.66,1.19-16.49.84-29.5-1.05-8.17-1.19-16-3.57-23.52-7.13l5.28-36.3c4.62,2.21,8.7,3.89,12.24,5.02,3.54,1.13,8.33,2.14,14.39,3.02,5.45.79,10.09.15,13.94-1.91,3.84-2.07,6.84-4.56,8.97-7.49,2.11-2.93,5.23-7.81,9.31-14.63l14.78-25.18-52.56-256.42,45.36,6.6,34.94,202.44.9.13Z"/>
      </g>
    </g>
  </g>
</svg>