<?xml version="1.0" encoding="UTF-8"?>
<svg id="Layer_2" data-name="Layer 2" xmlns="http://www.w3.org/2000/svg" viewBox="0 0 1662.57 1529.1">
  <defs>
    <style>
      .cls-1 {
        stroke-width: 80px;
      }

      .cls-1, .cls-2 {
        fill: none;
        stroke: #000;
        stroke-miterlimit: 10;
      }

      .cls-2 {
        stroke-width: 60px;
      }

      .cls-3 {
        font-size: 621.69px;
      }

      .cls-3, .cls-4 {
        font-family: HelveticaLTPro-Bold, 'Helvetica LT Pro';
        font-weight: 700;
      }

      .cls-4 {
        font-size: 540.62px;
      }
    </style>
  </defs>
  <g id="Layer_1-2" data-name="Layer 1">
    <g>
      <path class="cls-1" d="M1059.62,171.83l527.23,913.2c101.48,175.77-25.37,395.49-228.34,395.49H304.05c-202.96,0-329.82-219.72-228.34-395.49L602.95,171.83c101.48-175.77,355.19-175.77,456.67,0Z"/>
      <text class="cls-3" transform="translate(174.65 1365.6)"><tspan x="0" y="0">m</tspan></text>
      <text class="cls-4" transform="translate(1119.59 1365.59)"><tspan x="0" y="0">S</tspan></text>
      <text class="cls-3" transform="translate(733.17 599.32)"><tspan x="0" y="0">r</tspan></text>
      <g>
        <path class="cls-2" d="M684.81,884.01c-44.96,16.05-97.5,34.69-142.37,50.24-31.1,10.78-45.82,12.21-50.98-25.71-6.11-39.42-12.27-90.19-17.28-127.99"/>
        <path class="cls-2" d="M702.44,650.18c-53.46,78.21-144.11,210.84-198.67,290.67"/>
      </g>
      <g>
        <path class="cls-2" d="M922.36,1303.18c34.04-24.3,73.75-52.76,107.38-77.25,23.32-16.97,31.71-26.85,7.02-49.53-25.29-24.12-58.72-53.96-83.4-76.48"/>
        <path class="cls-2" d="M745.37,1198.84c83,.69,223.76,1.87,308.48,2.57"/>
      </g>
      <polygon class="cls-2" points="1053.85 571.29 1056.94 737.3 1215.78 688.94 1058.86 743.19 1153.93 879.31 1053.85 746.82 953.76 879.31 1048.84 743.19 891.91 688.94 1050.75 737.3 1053.85 571.29"/>
    </g>
  </g>
</svg>