<?xml version="1.0" encoding="UTF-8"?>
<svg id="Layer_2" data-name="Layer 2" xmlns="http://www.w3.org/2000/svg" viewBox="0 0 273.43 40.91">
  <g id="Layer_1-2" data-name="Layer 1">
    <g>
      <path d="M113.31,4.84v29.31c0,3.74-4.26,6.76-9.51,6.76h-42.52c-5.45,0-9.68-1.02-12.7-3.07-3.02-2.04-4.53-4.58-4.53-7.6v-4.93c0-1.31-1.48-2.37-3.33-2.37h-18.52c-2.76,0-5,.59-6.69,1.74-1.7,1.16-2.56,2.75-2.56,4.75v9.06c0,1.33-1.51,2.41-3.38,2.41H3.38c-1.87,0-3.38-1.08-3.38-2.41v-10.19c0-3.14,1.49-5.62,4.49-7.42,2.99-1.81,7.02-2.71,12.1-2.71h44.46c3.08,0,5.59-.65,7.51-1.94,1.93-1.3,2.89-2.86,2.89-4.69-.01-1.31-.58-2.61-1.62-3.68-1.88-1.94-4.81-2.91-8.78-2.91H3.5c-1.63,0-3.15-.78-3.44-1.93C-.33,1.54,1.29.23,3.33.23h63.25c5.56,0,9.92,1.09,13.08,3.26,3.17,2.17,4.75,4.87,4.75,8.09s-1.59,5.94-4.76,8.11c-3.18,2.18-7.53,3.26-13.07,3.26h-6.22c-1.87,0-3.38,1.08-3.38,2.41v4.17c0,1.89.9,3.47,2.69,4.73,1.79,1.26,4.42,1.88,7.87,1.88h29.32c1.93,0,3.5-1.12,3.5-2.49V5.07c0-2.63,3.02-4.93,6.72-4.84,1.7.04,3.22.55,4.33,1.34,1.18.84,1.9,1.99,1.9,3.26Z"/>
      <path d="M202.63,0c4.79,0,8.67,2.76,8.67,6.17v8.31c0,2.11,3.13,3.49,5.8,2.55L264.37.22c.17-.06.46-.14.65-.16,4.93-.64,6.76,3.89,2.74,5.33l-34.44,12.4c-2.93,1.06-2.93,4.04,0,5.09l34.43,12.39c8.25,2.97,7.42,5.4-1.81,5.4-.61,0-1.22-.1-1.77-.29l-47.09-16.49c-2.66-.93-5.78.44-5.78,2.56v11.37c0,1.58-1.8,2.85-4.01,2.85h-4.18c-2.63,0-4.78-1.53-4.78-3.4V7.15c0-1.31-1.51-2.39-3.35-2.39h-14.08c-3.19,0-5.75.58-7.69,1.73-1.95,1.16-2.92,2.77-2.92,4.85v18.67c0,3.03-1.5,5.56-4.52,7.6-3.02,2.04-7.26,3.07-12.7,3.07h-32.17c-.55,0-1.3-.24-1.64-.54-1.49-1.32-1.16-2.71-.02-3.53.61-.43,1.45-.7,2.37-.7h25.2c3.46,0,6.09-.63,7.88-1.88,1.79-1.26,2.69-2.84,2.69-4.72V10.38c0-3.23,1.51-5.77,4.54-7.62,3.03-1.84,7.14-2.76,12.35-2.76h28.34Z"/>
    </g>
  </g>
</svg>